# xmcd
#
# Track frame offsets:
#	150
#	18063
#	32719
#	44679
#	65819
#	82188
#	95878
#	114236
#	135429
#	151383
#	171457
#	189861
#	206699
#	220517
#	235919
#	254058
#	274453
#	291239
#	307969
#
# Disc length: 4327 seconds
#
# Revision: 0
# Processed by: cddbd v1.5.2PL0 Copyright (c) Steve Scherf et al.
# Submitted via: EasyCDDAExtractor 16.0.9.1
#
DISCID=1d10e513
DTITLE=Nu Urban Traxx Volume 219 US
DYEAR=2015
DGENRE=blues
TTITLE0=Jeremih - Oui
TTITLE1=TK N Cash - 3 Times In A Row
TTITLE2=Janet Jackson - Unbreakable
TTITLE3=Colonel Loud ft T.I. and Young Dolph - California
TTITLE4=K Camp ft. Fetty Wap - 1Hunnid
TTITLE5=iLoveMemphis - Hit The Quan
TTITLE6=Blac Youngsta ft. Yo Gotti - Heavy
TTITLE7=Rick Ross ft. Chris Brown - Sorry
TTITLE8=Kevin Gates - Kno One
TTITLE9=Avery Wilson ft. Migos - Change My Mind
TTITLE10=Boogie - Oh My
TTITLE11=Jeezy ft. Janelle Monae - Sweet Life
TTITLE12=Yo Gotti - Down In The DM
TTITLE13=R. Kelly ft. Jeremih and Lil Wayne - Switch Up
TTITLE14=JR Castro ft. Kid Ink and Migos - Get Home
TTITLE15=August Alsina - Song Cry
TTITLE16=Puff Daddy and The Family ft. Pharrell Williams - Finna Get Loose
TTITLE17=Wiz Khalifa - King Of Everything
TTITLE18=2 Milly - Milly Rock
EXTD=
EXTT0=
EXTT1=
EXTT2=
EXTT3=
EXTT4=
EXTT5=
EXTT6=
EXTT7=
EXTT8=
EXTT9=
EXTT10=
EXTT11=
EXTT12=
EXTT13=
EXTT14=
EXTT15=
EXTT16=
EXTT17=
EXTT18=
PLAYORDER=
